<?xml version="1.0" encoding="utf-8"?>
<!-- Generator: Adobe Illustrator 22.0.0, SVG Export Plug-In . SVG Version: 6.00 Build 0)  -->
<svg version="1.1" id="图层_1" xmlns="http://www.w3.org/2000/svg" xmlns:xlink="http://www.w3.org/1999/xlink" x="0px" y="0px"
	 viewBox="0 0 1000 1000" enable-background="new 0 0 1000 1000" xml:space="preserve">
<g>
	<path fill="#F9DB91" d="M213.39996,562.40399c22.15295,0,42.62506-11.81604,53.69904-31.00403
		c11.07898-19.18298,11.07898-42.82401,0-62.00699c-11.07397-19.18402-31.54608-31.00403-53.69904-31.00403
		c-22.15198,0-42.625,11.82001-53.69897,31.00403c-11.078,19.18298-11.078,42.82401,0,62.00699
		C170.77496,550.58795,191.24799,562.40399,213.39996,562.40399L213.39996,562.40399z M213.39996,562.40399"/>
	<path fill="#AEF0FF" d="M561.69299,563.98297"/>
	<path fill="#EF6A6A" d="M498.11096,276.41199c22.15204,0,42.62506-11.81598,53.70306-31.00403
		c11.07397-19.18298,11.07397-42.81995,0-62.008c-11.078-19.18298-31.55103-31.00305-53.70306-31.00305
		c-22.15198,0-42.62497,11.82007-53.69897,31.00305c-11.078,19.18805-11.078,42.82501,0,62.008
		C455.48599,264.59601,475.95898,276.41199,498.11096,276.41199L498.11096,276.41199z M498.11096,276.41199"/>
	<path fill="#F9DB91" d="M785.38501,562.40399c22.15198,0,42.625-11.81604,53.69897-31.00403
		c11.078-19.18298,11.078-42.82401,0-62.00699c-11.07397-19.18402-31.547-31.00403-53.69897-31.00403
		c-22.15302,0-42.625,11.82001-53.70398,31.00403c-11.07404,19.18298-11.0741,42.82401-0.00006,62.00699
		C742.75995,550.58795,763.23199,562.40399,785.38501,562.40399L785.38501,562.40399z M785.38501,562.40399"/>
	<path fill="#EF6A6A" d="M512.36096,846.75195c33.33197-7.867,53.97302-41.26196,46.11005-74.59399
		c-7.86804-33.328-41.26599-53.97198-74.59402-46.10498c-21.56302,5.08997-38.77002,21.29297-45.14502,42.51196
		c-6.37097,21.21399-0.94098,44.22205,14.24603,60.34705C468.16599,845.04095,490.80298,851.84198,512.36096,846.75195
		L512.36096,846.75195z M512.36096,846.75195"/>
	<path opacity="0.4" fill="#FBB03B" d="M498.11096,141.99799c-35.633,0.00397-65.965,25.92999-71.51898,61.125
		c-111.46497,26.72302-199.19995,114.47302-225.81702,225.96899c-34.578,6.13297-59.77295,36.18701-59.77295,71.30499
		c0,35.117,25.19495,65.17102,59.77295,71.30396c26.61707,111.49603,114.34399,199.26202,225.81702,225.98505
		c5.56198,35.19098,35.89804,61.10901,71.52701,61.10901s65.965-25.91803,71.52695-61.10901
		c111.32104-26.68799,198.93805-114.27399,225.70007-225.60199c35.79596-4.96899,62.44897-35.578,62.44897-71.71902
		c0-36.13998-26.65302-66.74997-62.44897-71.71799c-26.76196-111.297-114.40302-198.89899-225.71497-225.60199
		C564.04102,167.88092,533.71698,141.99799,498.11096,141.99799L498.11096,141.99799z M296.64594,298.93201
		c35.82806-35.94904,80.64508-61.62103,129.77808-74.34406c4.52701,31.82001,29.48398,56.84802,61.289,61.47302v114.55002
		c-47.17599,4.92999-84.457,42.211-89.38699,89.38699H285.05597c-4.69098-32.26901-30.37097-57.42603-62.72998-61.45703
		c12.76593-49.05798,38.42603-93.80798,74.31995-129.60095V298.93201z M577.63098,500.39697
		c0,43.91797-35.60199,79.51904-79.52002,79.51898c-43.91797,0-79.51898-35.60101-79.51898-79.51898
		c0-43.91803,35.60101-79.51999,79.51898-79.51999C542.01001,420.92398,577.58398,456.49799,577.63098,500.39697
		L577.63098,500.39697z M161.79095,500.39697c0-28.50403,23.10498-51.60999,51.60901-51.60999s51.61005,23.10596,51.61005,51.60999
		c0,28.50299-23.10602,51.60895-51.61005,51.60895C184.91193,551.97498,161.82202,528.88495,161.79095,500.39697
		L161.79095,500.39697z M296.64594,701.86096c-35.89392-35.79303-61.55402-80.54303-74.31995-129.60101
		c32.36304-4.03101,58.04303-29.19196,62.72998-61.465h113.27005c4.92999,47.17599,42.211,84.457,89.38699,89.38699v114.55103
		c-31.81305,4.62396-56.76602,29.664-61.289,61.48798c-49.133-12.75397-93.94598-38.44598-129.77808-74.39899V701.86096z
		 M498.11096,837.99792c-28.5,0-51.60498-23.10498-51.60498-51.60895c0-28.50403,23.10498-51.61005,51.60498-51.61005
		c28.50403,0.00006,51.61005,23.10602,51.61005,51.61005C549.68896,814.87695,526.60297,837.96698,498.11096,837.99792
		L498.11096,837.99792z M699.58398,701.86096c-35.84003,35.94202-80.65997,61.61804-129.79303,74.35199
		c-4.53094-31.81995-29.48798-56.85199-61.29694-61.47998V600.18195c47.18396-4.91797,84.47699-42.203,89.40198-89.38699h115.83203
		c4.55896,31.35501,28.96893,56.11301,60.25397,61.11301C761.25195,621.09998,735.56,665.979,699.58398,701.86096
		L699.58398,701.86096z M836.98999,500.39697c0,28.50305-23.10498,51.60901-51.60498,51.60901
		c-28.50403,0-51.61005-23.10596-51.60999-51.60901c0-28.50403,23.10596-51.60999,51.60999-51.60999
		C813.87299,448.81796,836.96301,471.90799,836.98999,500.39697L836.98999,500.39697z M699.58398,298.93201
		c35.96906,35.88989,61.66003,80.76495,74.39801,129.95294c-31.28894,5.00003-55.69501,29.754-60.25397,61.11304H597.896
		c-4.92499-47.17599-42.20703-84.46103-89.38303-89.38699V286.06097c31.80099-4.62897,56.75003-29.66101,61.27805-61.48102
		c49.12897,12.73804,93.94098,38.414,129.77698,74.35205H699.58398z M549.72101,214.40399
		c0,28.50397-23.10596,51.60999-51.61005,51.60999c-28.5,0-51.60498-23.10602-51.60498-51.60999
		c0-28.5,23.10498-51.60901,51.60498-51.60901C526.60297,162.82599,549.68896,185.91595,549.72101,214.40399L549.72101,214.40399z
		 M549.72101,214.40399"/>
</g>
<g>
	<path fill="#FBB03B" d="M506.91364,512.21484v57.01172l56.3598-39.82288L522.9295,500.896L506.91364,512.21484z
		 M506.91364,512.21484"/>
	<path fill="#FBB03B" d="M563.27344,469.36035l-56.3598-39.82285v57.01312l16.01587,11.31726L563.27344,469.36035z
		 M563.27344,469.36035"/>
	<path fill="#FBB03B" d="M525.07483,499.38232l39.10352,27.63275v-55.26529L525.07483,499.38232z M525.07483,499.38232"/>
	<path fill="#FBB03B" d="M448.07941,469.36035l40.34335,28.50754l16.01743-11.31726v-57.01312L448.07941,469.36035z
		 M448.07941,469.36035"/>
	<path fill="#FBB03B" d="M504.44019,512.21484L488.42276,500.896l-40.34335,28.50769l56.36078,39.82288V512.21484z
		 M504.44019,512.21484"/>
	<path fill="#FBB03B" d="M476.66333,499.38232l-42.48499,30.02136v-60.04333L476.66333,499.38232z M476.66333,499.38232"/>
	<path fill="#FBB03B" d="M520.78711,499.38232l-15.11096-10.67645l-15.10941,10.67645l15.11096,10.67645L520.78711,499.38232z
		 M520.78711,499.38232"/>
</g>
</svg>
