<?xml version="1.0" encoding="utf-8"?>
<!-- Generator: Adobe Illustrator 22.0.0, SVG Export Plug-In . SVG Version: 6.00 Build 0)  -->
<svg version="1.1" id="图层_1" xmlns="http://www.w3.org/2000/svg" xmlns:xlink="http://www.w3.org/1999/xlink" x="0px" y="0px"
	 viewBox="0 0 900 300" enable-background="new 0 0 900 300" xml:space="preserve">
<g opacity="0.5">
	<polyline opacity="0.2" fill="#606060" points="235.03723,222.99715 293.97684,181.35042 251.78621,151.53706 235.03723,163.3743 
		235.03723,222.99715 	"/>
	<path opacity="0.2" fill="#606060" d="M235.03723,163.3743"/>
	<path opacity="0.2" fill="#606060" d="M293.97684,118.55711l-58.93961-41.64671v59.62429l16.74898,11.8356L293.97684,118.55711z
		 M293.97684,118.55711"/>
	<path opacity="0.2" fill="#606060" d="M254.02975,149.95409l40.8934,28.89828v-57.79639L254.02975,149.95409z M254.02975,149.95409
		"/>
	<path opacity="0.2" fill="#606060" d="M173.37392,118.55711l42.19003,29.81318l16.7506-11.8356V76.91039L173.37392,118.55711z
		 M173.37392,118.55711"/>
	<polyline opacity="0.2" fill="#606060" points="232.45055,222.99715 232.45055,163.3743 215.69994,151.53706 173.5099,181.35042 
		232.45055,222.99715 	"/>
	<path opacity="0.2" fill="#606060" d="M232.45055,163.3743"/>
	<path opacity="0.2" fill="#606060" d="M203.55878,149.95409l-44.4297,31.39633v-62.79331L203.55878,149.95409z
		 M203.55878,149.95409"/>
	<path opacity="0.2" fill="#606060" d="M249.54573,149.95409l-15.80266-11.16545l-15.80101,11.16545l15.80264,11.16542
		L249.54573,149.95409z M249.54573,149.95409"/>
</g>
<path fill="#E6E6E6" d="M226.8187,55.40737c4.01978,0,7.84985,0.88111,10.50954,2.41651l63.71516,36.78617
	c5.59985,3.2312,10.50952,11.73879,10.50952,18.2039v73.57211c0,6.46413-4.91162,14.96999-10.50952,18.20291l-63.71516,36.78616
	c-2.65968,1.53542-6.48976,2.41652-10.50954,2.41652c-4.0188,0-7.84865-0.8811-10.50856-2.41652l-63.71591-36.78616
	c-5.59717-3.23293-10.50952-11.73878-10.50952-18.20291v-73.57211c0-6.4651,4.91235-14.97096,10.50952-18.2039l63.71591-36.78617
	C218.97005,56.28848,222.80185,55.40737,226.8187,55.40737 M226.8187,49.5995c-4.86086,0-9.72462,1.06518-13.41335,3.19483
	l-63.71516,36.78618c-7.37648,4.25904-13.41335,14.71411-13.41335,23.23343v73.57211c0,8.51833,6.03687,18.97342,13.41335,23.23245
	l63.71516,36.78618c3.68872,2.13062,8.55249,3.19482,13.41335,3.19482c4.86182,0,9.7256-1.06421,13.41359-3.19482l63.7159-36.78618
	c7.37866-4.25903,13.4136-14.71413,13.4136-23.23245v-73.57211c0-8.51932-6.0369-18.97439-13.4136-23.23343l-63.7159-36.78618
	C236.5443,50.66468,231.68246,49.5995,226.8187,49.5995L226.8187,49.5995z M226.8187,49.5995"/>
<g>
	<path opacity="0.6" fill="#D7E3FF" d="M209.97519,149.63783c0,6.07591,3.26411,11.68936,8.56207,14.7272
		c5.2977,3.03708,11.82492,3.03708,17.12263,0c5.29895-3.03784,8.56207-8.65129,8.56207-14.7272
		c0-6.07466-3.26312-11.68936-8.56207-14.72621c-5.29771-3.03783-11.82494-3.03783-17.12263,0
		C213.2393,137.94847,209.97519,143.56317,209.97519,149.63783L209.97519,149.63783z M209.97519,149.63783"/>
	<path fill="#6D7EFF" d="M218.92227,149.63783c-0.00098,2.87909,1.55788,5.53952,4.08742,6.98006
		c2.53053,1.4393,5.64725,1.4393,8.1778,0c2.53052-1.44054,4.08838-4.10097,4.08742-6.98006
		c0.00096-2.87907-1.5569-5.53926-4.08742-6.9798c-2.53055-1.43954-5.64726-1.43954-8.1778,0
		C220.48015,144.09857,218.9213,146.75876,218.92227,149.63783L218.92227,149.63783z M218.92227,149.63783"/>
	<path fill="#253369" d="M226.89102,73.08629c16.51627,0,29.90698,34.18787,29.90698,76.37358
		c0,42.18645-13.33105,76.37431-29.90698,76.37431c-16.57494,0-29.90695-34.20241-29.90695-76.37431
		C196.98407,107.28846,210.37476,73.08629,226.89102,73.08629L226.89102,73.08629z M223.32175,79.21864
		c-13.83562,0-25.03397,31.4621-25.03397,70.28634c0,38.82324,11.22818,70.28535,25.06281,70.28535
		c13.83563,0,25.04826-31.46211,25.04826-70.28535C248.39885,110.68074,237.14185,79.21864,223.32175,79.21864L223.32175,79.21864z
		 M223.32175,79.21864"/>
	<path fill="#FF7946" d="M160.75298,187.6474c-8.26552-14.30914,14.6646-42.95676,51.19221-64.09484
		c36.52788-21.1371,72.83414-26.5879,81.14377-12.3384c8.30966,14.24974-14.65027,42.95601-51.17789,64.07956
		C205.38321,196.41652,169.00372,201.9415,160.75298,187.6474L160.75298,187.6474z M167.7599,187.6474
		c6.91719,11.96864,39.81589,5.92479,73.48488-13.47919c33.66901-19.40497,55.34052-44.83852,48.42209-56.79262
		c-6.91721-11.95411-39.80161-5.92455-73.47035,13.48041C182.52751,150.25999,160.84148,175.69328,167.7599,187.6474
		L167.7599,187.6474z M167.7599,187.6474"/>
	<path fill="#F1F4FB" d="M258.91638,108.10312c0,5.08031,4.11823,9.19852,9.19852,9.19852
		c5.08008,0,9.19928-4.11821,9.19928-9.19852c0-3.28629-1.75336-6.32313-4.59964-7.96578
		c-2.84631-1.64365-6.35321-1.64365-9.19852,0C260.66971,101.77999,258.91638,104.81683,258.91638,108.10312L258.91638,108.10312z
		 M258.91638,108.10312"/>
	<path fill="#FF7946" d="M261.21201,108.10312c0,2.46596,1.31604,4.74507,3.45193,5.97755c2.13568,1.23347,4.767,1.23347,6.90268,0
		c2.13562-1.23248,3.45093-3.5116,3.45093-5.97755c0-2.46595-1.31531-4.74506-3.45093-5.97755
		c-2.13568-1.23345-4.767-1.23345-6.90268,0C262.52805,103.35806,261.21201,105.63717,261.21201,108.10312L261.21201,108.10312z
		 M261.21201,108.10312"/>
	<path fill="#F1F4FB" d="M231.82393,209.31792c0,3.2863,1.75333,6.32336,4.59962,7.96603c2.8463,1.64365,6.35222,1.64365,9.19852,0
		c2.84605-1.64267,4.59962-4.67973,4.59962-7.96603s-1.75357-6.32314-4.59962-7.96678c-2.8463-1.64265-6.35222-1.64265-9.19852,0
		C233.57726,202.99478,231.82393,206.03162,231.82393,209.31792L231.82393,209.31792z M231.82393,209.31792"/>
	<path fill="#253369" d="M234.12029,209.31792c0,2.46594,1.31531,4.74506,3.45096,5.97755
		c2.13565,1.23346,4.76724,1.23346,6.90289,0c2.13564-1.2325,3.45094-3.51161,3.45094-5.97755
		c0-2.46571-1.31531-4.74506-3.45094-5.97755c-2.13565-1.23322-4.76724-1.23322-6.90289,0
		C235.43559,204.57286,234.12029,206.8522,234.12029,209.31792L234.12029,209.31792z M234.12029,209.31792"/>
	<path fill="#597EF7" d="M293.08896,187.6474c-8.25098,14.2941-44.55626,8.79895-81.08388-12.29501
		c-36.52786-21.09273-59.51762-49.78447-51.25211-64.13823c8.26529-14.35352,44.55627-8.81422,81.09941,12.27974
		C278.39554,144.58661,301.29559,173.33826,293.08896,187.6474L293.08896,187.6474z M289.57837,181.47067
		c6.90289-11.96864-14.81296-37.41747-48.3634-56.83673c-33.55067-19.41951-66.53787-25.43354-73.45605-13.41978
		c-6.91743,12.01303,14.73878,37.40221,48.3045,56.80592c33.56497,19.40497,66.53787,25.43355,73.45602,13.45059H289.57837z
		 M289.57837,181.47067"/>
	<path fill="#F1F4FB" d="M158.97549,132.6335c0,3.28629,1.75333,6.32216,4.59962,7.96579c2.84531,1.64365,6.35197,1.64365,9.19827,0
		c2.84631-1.64363,4.59988-4.6795,4.59988-7.96579c0-3.2863-1.75357-6.32338-4.59988-7.96702
		c-2.8463-1.64266-6.35297-1.64266-9.19827,0C160.72882,126.31012,158.97549,129.3472,158.97549,132.6335L158.97549,132.6335z
		 M158.97549,132.6335"/>
	<path fill="#597EF7" d="M161.27087,132.6335c0,3.81207,3.09082,6.90192,6.90289,6.90192s6.90289-3.08984,6.90289-6.90192
		c0-2.46695-1.31531-4.74506-3.45096-5.97853c-2.13565-1.23249-4.76723-1.23249-6.90289,0
		C162.58716,127.88844,161.27087,130.16655,161.27087,132.6335L161.27087,132.6335z M161.27087,132.6335"/>
</g>
<g>
	<path fill="#597EF7" d="M455.5209,107.48431l-4.25058,3.01724c10.15189,4.88911,16.11737,8.55291,17.8956,10.99138
		c1.77002,2.44543,2.48166,4.6736,2.12772,6.68104c-0.15201,0.86206-0.62012,1.93965-1.39648,3.23276
		c-0.78329,1.29311-1.44653,1.93965-1.99487,1.93965c-0.82645,0-1.729-1.14537-2.69772-3.44827
		c-1.60016-3.44828-3.79379-6.6063-6.59235-9.48276c-2.79892-2.86951-5.79117-5.45572-8.96112-7.75862
		c-8.73959,12.06896-15.1423,20.25862-19.20721,24.56897l3.93695,3.44827h19.83368l4.40256-3.87932l4.72018,6.03448
		l-3.76093,2.58621c-2.55817,12.93103-4.69458,20.76439-6.41464,23.49138c-1.72217,2.73393-5.12866,5.24715-10.21405,7.54311
		c-0.89285-4.31035-3.42151-7.17986-7.56992-8.6207l0.30402-1.72414c5.02573,1.15233,8.3399,1.50862,9.93323,1.07759
		c1.58636-0.43103,2.87247-1.86493,3.85895-4.31035c0.97833-2.43848,2.54489-8.97699,4.69736-19.61208h-20.24643l-7.2963,41.37932
		c-1.36652,4.6006-0.11847,6.89655,3.74258,6.89655h21.48569c1.92401,0,3.37332-0.78732,4.34338-2.37068
		c0.96274-1.5764,2.65927-7.68388,5.08981-18.31897h1.65289c-0.54007,4.6006-0.90045,8.6207-1.0957,12.06897
		c-0.19437,3.44827,0.67798,5.89369,2.63333,7.32759c-2.26089,3.44827-4.73984,5.38792-7.43073,5.81895
		c-2.69699,0.43105-4.72937,0.64656-6.10504,0.64656h-23.965c-5.23584,0-7.31873-3.01724-6.25467-9.05173l8.58835-48.70689
		c-5.09543,5.46266-10.34088,10.20404-15.73029,14.22414l-0.59842-1.29311c9.10916-9.48276,16.52829-18.75,22.25656-27.80173
		c5.72739-9.05172,9.78183-16.44709,12.17767-22.19827L455.5209,107.48431z M486.53821,130.76016l-4.94019,28.01724
		c-0.65921,3.73854-1.20767,7.61784-1.63843,11.63794l-6.57788,2.15517c1.48718-6.89655,3.1489-15.51724,4.97296-25.86206
		c1.8241-10.34483,3.10043-18.38675,3.84338-24.13794l7.84116,4.74139L486.53821,130.76016z M474.35455,192.82913l0.38004-2.15517
		c7.55707,0.86206,12.1925,1.15231,13.89658,0.86206c1.70282-0.28329,2.80817-1.86491,3.31534-4.74138l12.00848-68.10344
		c0.65799-3.73158,1.37753-8.6207,2.17044-14.65517l8.25482,4.74138l-3.42413,3.01724l-13.75656,78.01723
		c-0.91202,5.17242-4.76624,9.05173-11.55569,11.63794C484.65021,197.71129,480.88324,194.83658,474.35455,192.82913z"/>
	<path fill="#597EF7" d="M680.15125,124.72569c-2.10211,10.34483-4.06189,19.11326-5.87537,26.2931h30.98926l7.33795-6.46552
		l7.0802,9.05173H680.0177c0.46277,5.17241,1.93188,10.49257,4.41815,15.94827c2.47809,5.46268,6.10291,10.27705,10.88373,14.43967
		c4.77094,4.16956,10.88843,6.97128,18.35077,8.40517l-0.30402,1.72414c-5.00861,0.28329-8.55878,2.43848-10.64368,6.46552
		c-4.1803-2.87646-7.90228-5.96669-11.17529-9.26724c-3.2782-3.30054-6.30914-7.97414-9.10004-14.00862
		c-2.79614-6.03448-4.43097-13.93388-4.90979-23.70689h-4.13135c-5.01257,14.37187-12.43945,25.21552-22.26703,32.54311
		c-9.83276,7.32759-21.2215,12.56778-34.17529,15.73276l-0.10962-1.72414c11.77399-4.31035,21.86395-9.98158,30.27197-17.02586
		c8.40161-7.03734,15.09546-16.87813,20.08209-29.52586h-27.27161c-3.58209,0-6.96387,0.43103-10.14355,1.29311l-3.03534-3.87932
		H668.078c1.91553-7.75862,3.87408-16.52008,5.87543-26.2931h-19.4209c-6.80621,8.91094-13.7735,16.37931-20.89288,22.4138
		l-1.01117-1.29311c5.79449-6.31778,11.1347-13.57759,16.02704-21.76724c4.88538-8.18965,8.57318-15.4425,11.06842-21.76723
		l9.34283,5.60345l-3.94739,1.2931c-3.18854,4.02705-6.29321,8.33739-9.30353,12.93104h45.45154l7.2619-6.03448l6.74261,8.62069
		H680.15125z"/>
</g>
<g opacity="0.5">
	<path opacity="0.2" fill="#606060" d="M320.27884,197.56656"/>
</g>
</svg>
