<?xml version="1.0" encoding="utf-8"?>
<!-- Generator: Adobe Illustrator 22.0.0, SVG Export Plug-In . SVG Version: 6.00 Build 0)  -->
<svg version="1.1" id="图层_1" xmlns="http://www.w3.org/2000/svg" xmlns:xlink="http://www.w3.org/1999/xlink" x="0px" y="0px"
	 viewBox="0 0 500 500" enable-background="new 0 0 500 500" xml:space="preserve">
<g opacity="0.5">
	<polyline opacity="0.2" fill="#606060" points="262.564,314.29 352.254,250.916 288.051,205.548 262.564,223.561 262.564,314.29 	
		"/>
	<path opacity="0.2" fill="#606060" d="M262.564,223.561"/>
	<path opacity="0.2" fill="#606060" d="M352.254,155.362l-89.69-63.375v90.732l25.487,18.01L352.254,155.362z M352.254,155.362"/>
	<path opacity="0.2" fill="#606060" d="M291.465,203.139l62.228,43.975v-87.95L291.465,203.139z M291.465,203.139"/>
	<path opacity="0.2" fill="#606060" d="M168.729,155.362l64.202,45.367l25.49-18.01V91.987L168.729,155.362z M168.729,155.362"/>
	<polyline opacity="0.2" fill="#606060" points="258.628,314.29 258.628,223.561 233.138,205.548 168.936,250.916 258.628,314.29 	
		"/>
	<path opacity="0.2" fill="#606060" d="M258.628,223.561"/>
	<path opacity="0.2" fill="#606060" d="M214.662,203.139l-67.61,47.777v-95.554L214.662,203.139z M214.662,203.139"/>
	<path opacity="0.2" fill="#606060" d="M284.642,203.139l-24.047-16.991l-24.045,16.991l24.047,16.991L284.642,203.139z
		 M284.642,203.139"/>
</g>
<path fill="#E6E6E6" d="M250.057,59.265c6.117,0,11.945,1.341,15.993,3.677l96.957,55.978c8.521,4.917,15.993,17.863,15.993,27.701
	v111.956c0,9.837-7.474,22.78-15.993,27.7l-96.957,55.978c-4.047,2.336-9.876,3.677-15.993,3.677
	c-6.115,0-11.943-1.341-15.991-3.677l-96.958-55.978c-8.517-4.92-15.993-17.863-15.993-27.7V146.622
	c0-9.838,7.475-22.782,15.993-27.701l96.958-55.978C238.114,60.606,243.945,59.265,250.057,59.265 M250.057,50.427
	c-7.397,0-14.798,1.621-20.411,4.862l-96.957,55.978c-11.225,6.481-20.411,22.391-20.411,35.355v111.956
	c0,12.962,9.186,28.872,20.411,35.353l96.957,55.978c5.613,3.242,13.015,4.862,20.411,4.862c7.398,0,14.8-1.619,20.412-4.862
	l96.958-55.978c11.228-6.481,20.412-22.391,20.412-35.353V146.622c0-12.964-9.186-28.874-20.412-35.355l-96.958-55.978
	C264.857,52.048,257.459,50.427,250.057,50.427L250.057,50.427z M250.057,50.427"/>
<g>
	<path opacity="0.6" fill="#D7E3FF" d="M224.426,202.658c0,9.246,4.967,17.788,13.029,22.411c8.062,4.622,17.994,4.622,26.056,0
		c8.064-4.623,13.029-13.165,13.029-22.411c0-9.244-4.966-17.788-13.029-22.409c-8.062-4.623-17.994-4.623-26.056,0
		C229.393,184.87,224.426,193.414,224.426,202.658L224.426,202.658z M224.426,202.658"/>
	<path fill="#6D7EFF" d="M238.041,202.658c-0.001,4.381,2.371,8.43,6.22,10.622c3.851,2.19,8.594,2.19,12.444,0
		c3.851-2.192,6.221-6.241,6.22-10.622c0.001-4.381-2.369-8.429-6.22-10.621c-3.851-2.191-8.594-2.191-12.444,0
		C240.412,194.229,238.04,198.277,238.041,202.658L238.041,202.658z M238.041,202.658"/>
	<path fill="#253369" d="M250.167,86.168c25.133,0,45.51,52.024,45.51,116.219c0,64.196-20.286,116.221-45.51,116.221
		c-25.222,0-45.51-52.047-45.51-116.221C204.657,138.214,225.034,86.168,250.167,86.168L250.167,86.168z M244.736,95.499
		c-21.054,0-38.095,47.877-38.095,106.956c0,59.078,17.086,106.955,38.139,106.955c21.054,0,38.116-47.877,38.116-106.955
		C282.896,143.376,265.766,95.499,244.736,95.499L244.736,95.499z M244.736,95.499"/>
	<path fill="#FF7946" d="M149.524,260.498c-12.578-21.775,22.315-65.368,77.9-97.535c55.585-32.165,110.833-40.459,123.478-18.776
		c12.645,21.684-22.294,65.367-77.879,97.511C217.439,273.842,162.079,282.249,149.524,260.498L149.524,260.498z M160.186,260.498
		c10.526,18.213,60.589,9.016,111.824-20.512c51.235-29.529,84.213-68.232,73.685-86.423
		c-10.526-18.191-60.567-9.016-111.801,20.513C182.659,203.605,149.658,242.307,160.186,260.498L160.186,260.498z M160.186,260.498"
		/>
	<path fill="#F1F4FB" d="M298.901,139.454c0,7.731,6.267,13.998,13.998,13.998c7.73,0,13.999-6.267,13.999-13.998
		c0-5.001-2.668-9.622-6.999-12.122c-4.331-2.501-9.668-2.501-13.998,0C301.569,129.831,298.901,134.453,298.901,139.454
		L298.901,139.454z M298.901,139.454"/>
	<path fill="#FF7946" d="M302.395,139.454c0,3.753,2.003,7.221,5.253,9.096c3.25,1.877,7.254,1.877,10.504,0
		c3.25-1.875,5.251-5.344,5.251-9.096c0-3.752-2.002-7.221-5.251-9.096c-3.25-1.877-7.254-1.877-10.504,0
		C304.397,132.233,302.395,135.701,302.395,139.454L302.395,139.454z M302.395,139.454"/>
	<path fill="#F1F4FB" d="M257.674,293.474c0,5.001,2.668,9.622,6.999,12.122c4.331,2.501,9.666,2.501,13.998,0
		c4.331-2.5,6.999-7.121,6.999-12.122c0-5.001-2.668-9.622-6.999-12.123c-4.331-2.5-9.666-2.5-13.998,0
		C260.342,283.852,257.674,288.474,257.674,293.474L257.674,293.474z M257.674,293.474"/>
	<path fill="#253369" d="M261.168,293.474c0,3.753,2.002,7.221,5.251,9.096c3.25,1.877,7.254,1.877,10.504,0
		c3.25-1.875,5.251-5.344,5.251-9.096c0-3.752-2.002-7.221-5.251-9.096c-3.25-1.877-7.254-1.877-10.504,0
		C263.17,286.254,261.168,289.722,261.168,293.474L261.168,293.474z M261.168,293.474"/>
	<path fill="#597EF7" d="M350.902,260.498c-12.556,21.752-67.802,13.39-123.387-18.71c-55.585-32.097-90.569-75.758-77.991-97.601
		c12.577-21.842,67.802-13.413,123.411,18.686C328.543,194.971,363.391,238.723,350.902,260.498L350.902,260.498z M345.56,251.099
		c10.504-18.213-22.541-56.939-73.596-86.49c-51.055-29.551-101.252-38.703-111.78-20.421
		c-10.526,18.281,22.428,56.916,73.506,86.443c51.077,29.529,101.252,38.703,111.78,20.468H345.56z M345.56,251.099"/>
	<path fill="#F1F4FB" d="M146.819,176.782c0,5.001,2.668,9.621,6.999,12.122c4.33,2.501,9.666,2.501,13.997,0
		c4.331-2.501,7-7.121,7-12.122s-2.668-9.622-7-12.124c-4.331-2.5-9.667-2.5-13.997,0
		C149.487,167.16,146.819,171.781,146.819,176.782L146.819,176.782z M146.819,176.782"/>
	<path fill="#597EF7" d="M150.312,176.782c0,5.801,4.703,10.503,10.504,10.503c5.801,0,10.504-4.702,10.504-10.503
		c0-3.754-2.002-7.221-5.251-9.098c-3.25-1.876-7.254-1.876-10.504,0C152.315,169.561,150.312,173.028,150.312,176.782
		L150.312,176.782z M150.312,176.782"/>
</g>
<g>
	<path fill="#597EF7" d="M177.072,388.93l-2.772,1.968c6.62,3.188,10.51,5.577,11.67,7.168c1.154,1.595,1.618,3.048,1.387,4.357
		c-0.099,0.562-0.404,1.265-0.911,2.108c-0.511,0.843-0.943,1.265-1.301,1.265c-0.539,0-1.128-0.747-1.759-2.249
		c-1.043-2.249-2.474-4.308-4.299-6.184c-1.825-1.871-3.776-3.558-5.844-5.059c-5.699,7.87-9.874,13.211-12.525,16.022l2.567,2.249
		h12.934l2.871-2.53l3.078,3.935l-2.452,1.686c-1.668,8.432-3.061,13.541-4.183,15.319c-1.123,1.783-3.344,3.422-6.661,4.919
		c-0.582-2.811-2.231-4.682-4.936-5.622l0.198-1.124c3.277,0.751,5.439,0.984,6.478,0.703c1.034-0.281,1.873-1.216,2.516-2.811
		c0.638-1.59,1.66-5.854,3.063-12.789h-13.203l-4.758,26.984c-0.891,3-0.077,4.497,2.441,4.497h14.011
		c1.255,0,2.2-0.513,2.832-1.546c0.628-1.028,1.734-5.011,3.319-11.946h1.078c-0.352,3-0.587,5.622-0.714,7.87
		c-0.127,2.249,0.442,3.843,1.717,4.778c-1.474,2.249-3.091,3.513-4.846,3.795c-1.759,0.281-3.084,0.422-3.981,0.422H158.46
		c-3.414,0-4.773-1.968-4.079-5.903l5.601-31.762c-3.323,3.562-6.743,6.654-10.258,9.276l-0.39-0.843
		c5.94-6.184,10.778-12.227,14.514-18.13c3.735-5.903,6.379-10.725,7.941-14.476L177.072,388.93z M197.299,404.108l-3.222,18.27
		c-0.43,2.438-0.788,4.968-1.068,7.589l-4.289,1.405c0.97-4.497,2.053-10.119,3.243-16.865c1.189-6.746,2.022-11.99,2.506-15.741
		l5.113,3.092L197.299,404.108z M189.354,444.583l0.248-1.405c4.928,0.562,7.951,0.751,9.062,0.562
		c1.11-0.185,1.831-1.216,2.162-3.092l7.831-44.411c0.429-2.433,0.898-5.622,1.415-9.557l5.383,3.092l-2.233,1.968l-8.971,50.876
		c-0.595,3.373-3.108,5.903-7.536,7.589C196.068,447.767,193.611,445.893,189.354,444.583z"/>
	<path fill="#597EF7" d="M323.555,400.173c-1.371,6.746-2.649,12.464-3.831,17.146h20.208l4.785-4.216l4.617,5.903h-25.866
		c0.302,3.373,1.26,6.842,2.881,10.4c1.616,3.562,3.98,6.702,7.097,9.416c3.111,2.719,7.1,4.546,11.967,5.481l-0.198,1.124
		c-3.266,0.185-5.581,1.59-6.941,4.216c-2.726-1.876-5.153-3.891-7.287-6.043c-2.138-2.152-4.114-5.2-5.934-9.135
		c-1.823-3.935-2.889-9.086-3.202-15.459h-2.694c-3.269,9.372-8.112,16.443-14.52,21.222c-6.412,4.778-13.839,8.196-22.286,10.259
		l-0.071-1.124c7.678-2.811,14.258-6.509,19.741-11.103c5.479-4.589,9.844-11.006,13.096-19.254h-17.784
		c-2.336,0-4.541,0.281-6.615,0.843l-1.979-2.53h26.945c1.249-5.059,2.526-10.773,3.831-17.146h-12.664
		c-4.438,5.811-8.982,10.681-13.624,14.616l-0.659-0.843c3.779-4.12,7.261-8.854,10.451-14.195
		c3.186-5.341,5.591-10.07,7.218-14.195l6.093,3.654l-2.574,0.843c-2.079,2.626-4.104,5.437-6.067,8.432h29.639l4.736-3.935
		l4.397,5.622H323.555z"/>
</g>
<g opacity="0.5">
	<path opacity="0.2" fill="#606060" d="M392.278,275.592"/>
</g>
</svg>
