<?xml version="1.0" encoding="utf-8"?>
<!-- Generator: Adobe Illustrator 22.0.0, SVG Export Plug-In . SVG Version: 6.00 Build 0)  -->
<svg version="1.1" id="图层_1" xmlns="http://www.w3.org/2000/svg" xmlns:xlink="http://www.w3.org/1999/xlink" x="0px" y="0px"
	 viewBox="0 0 500 500" enable-background="new 0 0 500 500" xml:space="preserve">
<rect y="1" fill="#FFFFFF" width="500" height="500"/>
<g opacity="0.5">
	<polyline opacity="0.2" fill="#606060" points="262.6,314.3 352.3,250.9 288.1,205.5 262.6,223.6 262.6,314.3 	"/>
	<path opacity="0.2" fill="#606060" d="M262.6,223.6"/>
	<path opacity="0.2" fill="#606060" d="M352.3,155.4L262.6,92v90.7l25.5,18L352.3,155.4z M352.3,155.4"/>
	<path opacity="0.2" fill="#606060" d="M291.5,203.1l62.2,44v-88L291.5,203.1z M291.5,203.1"/>
	<path opacity="0.2" fill="#606060" d="M168.7,155.4l64.2,45.4l25.5-18V92L168.7,155.4z M168.7,155.4"/>
	<polyline opacity="0.2" fill="#606060" points="258.6,314.3 258.6,223.6 233.1,205.5 168.9,250.9 258.6,314.3 	"/>
	<path opacity="0.2" fill="#606060" d="M258.6,223.6"/>
	<path opacity="0.2" fill="#606060" d="M214.7,203.1l-67.6,47.8v-95.6L214.7,203.1z M214.7,203.1"/>
	<path opacity="0.2" fill="#606060" d="M284.6,203.1l-24-17l-24,17l24,17L284.6,203.1z M284.6,203.1"/>
</g>
<path fill="#E6E6E6" d="M250.1,59.3c6.1,0,11.9,1.3,16,3.7l97,56c8.5,4.9,16,17.9,16,27.7v112c0,9.8-7.5,22.8-16,27.7l-97,56
	c-4,2.3-9.9,3.7-16,3.7c-6.1,0-11.9-1.3-16-3.7l-97-56c-8.5-4.9-16-17.9-16-27.7v-112c0-9.8,7.5-22.8,16-27.7l97-56
	C238.1,60.6,243.9,59.3,250.1,59.3 M250.1,50.4c-7.4,0-14.8,1.6-20.4,4.9l-97,56c-11.2,6.5-20.4,22.4-20.4,35.4v112
	c0,13,9.2,28.9,20.4,35.4l97,56c5.6,3.2,13,4.9,20.4,4.9c7.4,0,14.8-1.6,20.4-4.9l97-56c11.2-6.5,20.4-22.4,20.4-35.4v-112
	c0-13-9.2-28.9-20.4-35.4l-97-56C264.9,52,257.5,50.4,250.1,50.4L250.1,50.4z M250.1,50.4"/>
<g>
	<path opacity="0.6" fill="#D7E3FF" d="M224.4,202.7c0,9.2,5,17.8,13,22.4c8.1,4.6,18,4.6,26.1,0c8.1-4.6,13-13.2,13-22.4
		c0-9.2-5-17.8-13-22.4c-8.1-4.6-18-4.6-26.1,0C229.4,184.9,224.4,193.4,224.4,202.7L224.4,202.7z M224.4,202.7"/>
	<path fill="#6D7EFF" d="M238,202.7c0,4.4,2.4,8.4,6.2,10.6c3.9,2.2,8.6,2.2,12.4,0c3.9-2.2,6.2-6.2,6.2-10.6
		c0-4.4-2.4-8.4-6.2-10.6c-3.9-2.2-8.6-2.2-12.4,0C240.4,194.2,238,198.3,238,202.7L238,202.7z M238,202.7"/>
	<path fill="#253369" d="M250.2,86.2c25.1,0,45.5,52,45.5,116.2c0,64.2-20.3,116.2-45.5,116.2c-25.2,0-45.5-52-45.5-116.2
		C204.7,138.2,225,86.2,250.2,86.2L250.2,86.2z M244.7,95.5c-21.1,0-38.1,47.9-38.1,107c0,59.1,17.1,107,38.1,107
		c21.1,0,38.1-47.9,38.1-107C282.9,143.4,265.8,95.5,244.7,95.5L244.7,95.5z M244.7,95.5"/>
	<path fill="#FF7946" d="M149.5,260.5c-12.6-21.8,22.3-65.4,77.9-97.5c55.6-32.2,110.8-40.5,123.5-18.8
		c12.6,21.7-22.3,65.4-77.9,97.5C217.4,273.8,162.1,282.2,149.5,260.5L149.5,260.5z M160.2,260.5c10.5,18.2,60.6,9,111.8-20.5
		c51.2-29.5,84.2-68.2,73.7-86.4c-10.5-18.2-60.6-9-111.8,20.5C182.7,203.6,149.7,242.3,160.2,260.5L160.2,260.5z M160.2,260.5"/>
	<path fill="#F1F4FB" d="M298.9,139.5c0,7.7,6.3,14,14,14c7.7,0,14-6.3,14-14c0-5-2.7-9.6-7-12.1c-4.3-2.5-9.7-2.5-14,0
		C301.6,129.8,298.9,134.5,298.9,139.5L298.9,139.5z M298.9,139.5"/>
	<path fill="#FF7946" d="M302.4,139.5c0,3.8,2,7.2,5.3,9.1c3.2,1.9,7.3,1.9,10.5,0c3.2-1.9,5.3-5.3,5.3-9.1c0-3.8-2-7.2-5.3-9.1
		c-3.2-1.9-7.3-1.9-10.5,0C304.4,132.2,302.4,135.7,302.4,139.5L302.4,139.5z M302.4,139.5"/>
	<path fill="#F1F4FB" d="M257.7,293.5c0,5,2.7,9.6,7,12.1c4.3,2.5,9.7,2.5,14,0c4.3-2.5,7-7.1,7-12.1c0-5-2.7-9.6-7-12.1
		c-4.3-2.5-9.7-2.5-14,0C260.3,283.9,257.7,288.5,257.7,293.5L257.7,293.5z M257.7,293.5"/>
	<path fill="#253369" d="M261.2,293.5c0,3.8,2,7.2,5.3,9.1c3.2,1.9,7.3,1.9,10.5,0c3.2-1.9,5.3-5.3,5.3-9.1c0-3.8-2-7.2-5.3-9.1
		c-3.2-1.9-7.3-1.9-10.5,0C263.2,286.3,261.2,289.7,261.2,293.5L261.2,293.5z M261.2,293.5"/>
	<path fill="#597EF7" d="M350.9,260.5c-12.6,21.8-67.8,13.4-123.4-18.7c-55.6-32.1-90.6-75.8-78-97.6
		c12.6-21.8,67.8-13.4,123.4,18.7C328.5,195,363.4,238.7,350.9,260.5L350.9,260.5z M345.6,251.1c10.5-18.2-22.5-56.9-73.6-86.5
		c-51.1-29.6-101.3-38.7-111.8-20.4c-10.5,18.3,22.4,56.9,73.5,86.4C284.8,260.2,334.9,269.3,345.6,251.1L345.6,251.1z M345.6,251.1
		"/>
	<path fill="#F1F4FB" d="M146.8,176.8c0,5,2.7,9.6,7,12.1c4.3,2.5,9.7,2.5,14,0c4.3-2.5,7-7.1,7-12.1s-2.7-9.6-7-12.1
		c-4.3-2.5-9.7-2.5-14,0C149.5,167.2,146.8,171.8,146.8,176.8L146.8,176.8z M146.8,176.8"/>
	<path fill="#597EF7" d="M150.3,176.8c0,5.8,4.7,10.5,10.5,10.5c5.8,0,10.5-4.7,10.5-10.5c0-3.8-2-7.2-5.3-9.1
		c-3.2-1.9-7.3-1.9-10.5,0C152.3,169.6,150.3,173,150.3,176.8L150.3,176.8z M150.3,176.8"/>
</g>
<g>
	<path fill="#597EF7" d="M177.1,388.9l-2.8,2c6.6,3.2,10.5,5.6,11.7,7.2c1.2,1.6,1.6,3,1.4,4.4c-0.1,0.6-0.4,1.3-0.9,2.1
		c-0.5,0.8-0.9,1.3-1.3,1.3c-0.5,0-1.1-0.7-1.8-2.2c-1-2.2-2.5-4.3-4.3-6.2c-1.8-1.9-3.8-3.6-5.8-5.1c-5.7,7.9-9.9,13.2-12.5,16
		l2.6,2.2h12.9l2.9-2.5l3.1,3.9l-2.5,1.7c-1.7,8.4-3.1,13.5-4.2,15.3c-1.1,1.8-3.3,3.4-6.7,4.9c-0.6-2.8-2.2-4.7-4.9-5.6l0.2-1.1
		c3.3,0.8,5.4,1,6.5,0.7c1-0.3,1.9-1.2,2.5-2.8c0.6-1.6,1.7-5.9,3.1-12.8H163l-4.8,27c-0.9,3-0.1,4.5,2.4,4.5h14
		c1.3,0,2.2-0.5,2.8-1.5c0.6-1,1.7-5,3.3-11.9h1.1c-0.4,3-0.6,5.6-0.7,7.9c-0.1,2.2,0.4,3.8,1.7,4.8c-1.5,2.2-3.1,3.5-4.8,3.8
		c-1.8,0.3-3.1,0.4-4,0.4h-15.6c-3.4,0-4.8-2-4.1-5.9l5.6-31.8c-3.3,3.6-6.7,6.7-10.3,9.3l-0.4-0.8c5.9-6.2,10.8-12.2,14.5-18.1
		c3.7-5.9,6.4-10.7,7.9-14.5L177.1,388.9z M197.3,404.1l-3.2,18.3c-0.4,2.4-0.8,5-1.1,7.6l-4.3,1.4c1-4.5,2.1-10.1,3.2-16.9
		c1.2-6.7,2-12,2.5-15.7l5.1,3.1L197.3,404.1z M189.4,444.6l0.2-1.4c4.9,0.6,8,0.8,9.1,0.6c1.1-0.2,1.8-1.2,2.2-3.1l7.8-44.4
		c0.4-2.4,0.9-5.6,1.4-9.6l5.4,3.1l-2.2,2l-9,50.9c-0.6,3.4-3.1,5.9-7.5,7.6C196.1,447.8,193.6,445.9,189.4,444.6z"/>
	<path fill="#597EF7" d="M323.6,400.2c-1.4,6.7-2.6,12.5-3.8,17.1h20.2l4.8-4.2l4.6,5.9h-25.9c0.3,3.4,1.3,6.8,2.9,10.4
		c1.6,3.6,4,6.7,7.1,9.4c3.1,2.7,7.1,4.5,12,5.5l-0.2,1.1c-3.3,0.2-5.6,1.6-6.9,4.2c-2.7-1.9-5.2-3.9-7.3-6
		c-2.1-2.2-4.1-5.2-5.9-9.1c-1.8-3.9-2.9-9.1-3.2-15.5h-2.7c-3.3,9.4-8.1,16.4-14.5,21.2c-6.4,4.8-13.8,8.2-22.3,10.3l-0.1-1.1
		c7.7-2.8,14.3-6.5,19.7-11.1c5.5-4.6,9.8-11,13.1-19.3h-17.8c-2.3,0-4.5,0.3-6.6,0.8l-2-2.5h26.9c1.2-5.1,2.5-10.8,3.8-17.1h-12.7
		c-4.4,5.8-9,10.7-13.6,14.6l-0.7-0.8c3.8-4.1,7.3-8.9,10.5-14.2c3.2-5.3,5.6-10.1,7.2-14.2l6.1,3.7l-2.6,0.8
		c-2.1,2.6-4.1,5.4-6.1,8.4h29.6l4.7-3.9l4.4,5.6H323.6z"/>
</g>
<g opacity="0.5">
	<path opacity="0.2" fill="#606060" d="M392.3,275.6"/>
</g>
</svg>
