<?xml version="1.0" standalone="no"?><!DOCTYPE svg PUBLIC "-//W3C//DTD SVG 1.1//EN" "http://www.w3.org/Graphics/SVG/1.1/DTD/svg11.dtd"><svg t="1626712888893" class="icon" viewBox="0 0 1024 1024" version="1.1" xmlns="http://www.w3.org/2000/svg" p-id="1448" xmlns:xlink="http://www.w3.org/1999/xlink" width="500" height="500"><defs><style type="text/css"></style></defs><path d="M804.8 384.2 524.3 384.2c-16 0-24 7.7-24 23.2 0 7.5 1.7 13.5 5.2 18 3.5 4.5 9.8 6.7 18.8 6.7l280.4 0c17 0 25.5-8 25.5-24C830.2 392.2 821.7 384.2 804.8 384.2z" p-id="1449" fill="#f4ea2a"></path><path d="M849.7 665.3l-72 0L777.7 645c0-2.5-0.3-4.5-0.7-6 10.5 4.1 20.1 6.9 28.9 8.7 8.7 1.7 16.6 2.6 23.6 2.6 19.5 0 29.3-8.7 29.3-26.2 0-13-13-22.2-39-27.8-15.5-3.5-32.2-9.3-50.3-17.2 27.5-21.5 41.3-37.7 41.3-48.7 0-4-1.4-8.2-4.1-12.7-2.7-4.5-6.1-8-10.1-10.5l33.7 0c10-0.5 17-2.5 21-6 4-3.5 6-10.2 6-20.2 0-14.5-9-21.8-27-21.8L488.3 459.2l0-84.7c0-12 3.5-18 10.5-18l326.9 0c8.5 0 15-1.7 19.5-5.3 4.5-3.5 6.7-10 6.7-19.5 0-10-2-16.4-6-19.1-4-2.7-10.2-4.1-18.7-4.1L669 308.5c2.5-4 3.7-9.3 3.7-15.8l0-25.5 166.5 0c17.5 0 26.2-8.7 26.2-26.2 0-10-2-16.5-6-19.5s-10.2-4.5-18.8-4.5L672.8 217l0-35.3c0-17-8.5-25.5-25.5-25.5-16.4 0-24.7 8.5-24.7 25.5L622.6 217l-222 0 0-33c0-16.5-8.5-24.8-25.5-24.8-16.4 0-24.7 8.3-24.7 24.8l0 33L179.5 217c-8.5 0-14.8 1.5-18.8 4.5-4 3-6 9.5-6 19.5 0 17.5 8.5 26.2 25.5 26.2l170.2 0 0 33.7c0 16.5 8.3 24.8 24.7 24.8 17 0 25.5-8.3 25.5-24.8l0-33.7 222 0 0 25.5c0 7.5 1.2 12.8 3.7 15.8L502.6 308.5c-29.5 0-47.7 5.7-54.7 17.2-6.5 10-9.7 28.5-9.7 55.5l0 168.7c0 48.5-5.3 100-15.8 154.4-3 16-6 30.3-9 42.7-3-5.5-8.8-12.7-17.2-21.7-8.5-9-21-21.2-37.5-36.7 13-26 23.5-51.1 31.5-75.3 8-24.2 14.2-48.4 18.7-72.3 5-25.5 8.7-48.6 10.9-69.4 2.2-20.8 3.3-39.1 3.3-55.1 0-19-4.5-33-13.4-42-9.1-9-23.3-13.5-42.7-13.5l-50.2 0c5.5-29.9 7-50.7 4.5-62.2-2.5-11.5-9.5-17.3-21-17.3-10 0-17.1 3-21.4 9.1-4.3 6-7.1 16-8.6 30-1.1 7-2.2 13.8-3.4 20.2-1.3 6.5-2.4 13.2-3.4 20.2L193 361c-17 0-25.5 8.5-25.5 25.5 0 16.5 8.5 24.8 25.5 24.8l61.5 0c-14 63.5-30.2 117.2-48.7 161.2l0-0.7c-5.5 11-8.3 22-8.3 32.9 0 7 1.7 13.9 5.3 20.6 3.5 6.7 9.2 12.8 17.2 18.4 13 9 25.2 18 36.7 27 11.4 9.1 23.2 18.8 35.2 29.3-31.5 49-71.2 86.9-119.2 113.9-16 9-24 19-24 29.9 0 5.5 1.7 10.8 5.3 15.8 3.5 5 9.4 7.5 18 7.5 15.5 0 41-13.8 76.5-41.3 31.5-24.5 59-54.4 82.5-90 5.5 5.5 10.6 10.8 15.4 15.8 4.7 5 9.1 9.5 13.1 13.5 12.5 13.4 21.8 21.1 28.1 22.8 6.3 1.7 11.4 0.7 15.4-3.3-5.5 14.4-10.7 26.5-15.7 35.9-8.1 15.5-9.4 27.2-4.1 35.3 5.3 8 13.4 12 24.4 12 9 0 17.7-8.4 26.2-25.1 8.5-16.8 17.5-41.9 27-75.3 2.5-8.5 4.7-17.4 6.7-26.6 2-9.2 3.7-19.2 5.3-29.6 3.5 2.5 10.4 3.7 21 3.7l20.2 0c-3.5 5-5.1 10.8-4.9 17.2 0.3 6.5 3.6 12.8 10.1 18.8 11.5 11 21.2 21.6 29.2 31.8 8 10.2 15.5 20.2 22.5 29.6 6 8.5 12.1 13.6 18.4 15.4 6.3 1.7 11.8 1.7 16.5-0.3 4.7-2 8.7-5.3 12-9.8 3.3-4.5 4.9-9 4.9-13.5 0-5-3.8-13.1-11.2-24.4-7.5-11.2-17-23.4-28.5-36.3-11.1-12.5-20.5-22-28.5-28.5L726 714.9l0 58.5c-1 14.4-2.1 25-3.4 31.5-1.2 6.5-4.1 9.7-8.6 9.7-4.5 0-10.6-1.3-18.4-3.7-7.8-2.5-17.1-5.8-28.2-9.8-8.5-3-14.7-4.5-18.7-4.5-15.5 0-23.2 9-23.2 27 0 7 2.7 13.2 8.3 18.8 3.5 4 14.7 9 33.7 15 18 6 33.3 9 45.8 9 42.9 0 64.4-29 64.4-86.9l0-64.5 72 0c7.5 0 13.2-1.5 17.2-4.5 5.5-3.5 8.3-11 8.3-22.4C875.2 672.8 866.7 665.3 849.7 665.3zM341.4 593.7c-6.5 20.8-14.5 41.1-24 61.1-37-28.5-58.4-44.7-64.5-48.7-2-0.5-3-1.7-3-3.8 0-1 0.5-3 1.5-6 1-3 2-6 3-9 8.5-22.5 17.2-48.9 26.2-79.1 9-30.2 17.5-62.6 25.5-97.1l56.2 0c4 0 6.6 0.7 7.9 2.3 1.3 1.5 1.9 4 1.9 7.5 0 24.5-4.7 60.4-14.2 108C353.4 551.3 347.9 573 341.4 593.7zM552.8 596.3l0-89.2 28.5 0c11.5 11 22.8 21 33.7 29.9 11 9.1 21.8 17.8 32.2 26.3-3 0.5-6.3 1.3-9.7 2.6-3.5 1.3-7.5 3.1-12 5.7-4.5 2.5-11 5.3-19.5 8.6-8.5 3.3-17 6.4-25.5 9.4-12 4-21.5 6.7-28.5 8.3C552.6 597.3 552.8 596.9 552.8 596.3zM726 645l0 20.3L493.6 665.3c-6.5 0-11.5 1-15 3 2.5-23.5 4.6-48.5 6.4-75 1.7-26.5 2.9-55.2 3.3-86.2l15 0 0 102.7c0 29 10.7 43.5 32.2 43.5 4.5 0 11.5-1.3 21-4.1 9.5-2.7 23.5-7.6 42-14.6 18.5-7 33-12.6 43.5-16.9 10.5-4.2 17.3-7.6 20.3-10.1 11-8.5 15.7-16.2 14.2-23.2 11.4 8 22.2 15 32.2 21 10 6.1 19.8 11.5 29.2 16.5C730 625.3 726 633.1 726 645zM761.2 519.9c-4 4.1-9 8.8-15 14.2-6 5.5-14 12.2-24 20.3-12.5-7.5-24.6-15.2-36.4-22.9-11.7-7.7-22.6-15.8-32.6-24.4l121.5 0c-2.5 1.5-4.6 3.4-6.4 5.6C766.6 515 764.2 517.4 761.2 519.9z" p-id="1450" fill="#f4ea2a"></path></svg>